<svg width="512" height="512" viewBox="0 0 512 512" fill="none" xmlns="http://www.w3.org/2000/svg">
<path d="M295.883 20.3378C281.227 20.2398 265.673 36.4898 258.826 49.9628C250.636 66.0798 244.666 93.3328 253 108.697L239.37 115.18C233.61 111.357 192.994 101.9 175.984 104.432C148.401 111.094 122.994 125.376 97.1906 138.272L109.356 164.939C132.486 154.519 152.276 136.475 179.246 134.515C200.779 132.949 213.854 146.05 230.032 153.067C228.966 221.963 213.192 254.242 176.002 313.507C149.474 330.299 114.789 331.234 81.8916 336.2L94.5116 364.523C135.338 359.103 174.729 354.459 203.459 337.873C261.562 296.106 289.125 275.565 352.002 245.493C382.302 254.923 393.239 284.601 407.032 306.541L431.195 283.911C418.695 256.551 387.045 222.231 352.002 199.845C329.308 206.888 307.914 216.855 287.869 229.855C294.509 205.185 294.519 185.078 286.191 160.407C304.981 167.28 323.083 170.694 340.471 170.544C368.008 150.144 383.155 124.238 403.131 100.478L384 84.5639C367.54 103.491 358.03 122.417 334.596 141.344C318.274 140.044 302.341 132.9 286.482 124.654L283.75 117.039C299.16 110.399 313.913 92.9548 319.084 78.2388C325.637 59.5918 320.657 28.1828 302.08 21.4348C300.092 20.7157 297.996 20.3452 295.883 20.3378ZM230.032 337.873L230.032 494H352V336.2L230.032 337.873Z" fill="black"/>
</svg>
