<svg width="297" height="303" viewBox="0 0 297 303" fill="none" xmlns="http://www.w3.org/2000/svg">
<path d="M152.944 62.3172C165.397 57.7763 171.81 44.0003 167.27 31.5475C162.729 19.0948 148.953 12.6809 136.5 17.2218C124.047 21.7627 117.633 35.5388 122.174 47.9915C126.715 60.4443 140.491 66.8581 152.944 62.3172Z" stroke="black" stroke-width="16" stroke-linecap="round" stroke-linejoin="round"/>
<path d="M64.5226 114.756C64.5226 114.756 85.792 79.6769 142.08 93.9259C201.246 108.86 224.381 86.1075 224.381 86.1075" stroke="black" stroke-width="16" stroke-linecap="round" stroke-linejoin="round"/>
<path d="M134.89 148.236C152.956 145.735 202.749 143.544 220.563 192.398" stroke="black" stroke-width="16" stroke-linecap="round" stroke-linejoin="round"/>
<path d="M140.241 93.436C142.668 117.809 139.371 195.053 74.3153 211.665" stroke="black" stroke-width="16" stroke-linecap="round" stroke-linejoin="round"/>
<rect x="187" y="206" width="66" height="88" rx="8" fill="black"/>
</svg>
